<?xml version="1.0" encoding="UTF-8"?>
<svg xmlns="http://www.w3.org/2000/svg" width="534.0" height="593.0" viewBox="0 0 534.0 593.0">
<style>.panel { fill: #f5f0e0; stroke: #333; stroke-width: 1.5; }
.cutout { fill: none; stroke: #c0392b; stroke-width: 1.2; stroke-dasharray: 6,3; }
.rebate { fill: #faebe0; stroke: #e67e22; stroke-width: 1.0; stroke-dasharray: 4,2; }
.pilot { fill: #333; }
.dim-line { stroke: #2980b9; stroke-width: 0.8; fill: none; }
.dim-text { fill: #2980b9; font-family: sans-serif; font-size: 11px; text-anchor: middle; }
.dim-text-v { fill: #2980b9; font-family: sans-serif; font-size: 11px; text-anchor: middle; }
.label { fill: #333; font-family: sans-serif; font-size: 12px; text-anchor: middle; font-weight: bold; }
.label-sm { fill: #555; font-family: sans-serif; font-size: 10px; text-anchor: middle; }
.label-driver { fill: #c0392b; font-family: sans-serif; font-size: 11px; text-anchor: middle; font-weight: bold; }
.title-text { fill: #222; font-family: sans-serif; font-size: 16px; font-weight: bold; }
.subtitle { fill: #555; font-family: sans-serif; font-size: 10px; }
.note { fill: #555; font-family: sans-serif; font-size: 10px; }
.arrow { stroke: #2980b9; stroke-width: 0.8; fill: #2980b9; }
.center-line { stroke: #888; stroke-width: 0.5; stroke-dasharray: 8,3,2,3; }
</style>
<rect width="534.0" height="593.0" fill="white"/>
<text x="15.0" y="25.0" class="title-text">Mk3 Cabinet — Assembly Measurement Drawing</text>
<rect x="50.0" y="60.0" width="105.0" height="413.0" rx="6.6" ry="6.6" class="panel"/>
<text x="102.5" y="52.0" class="label">FRONT</text>
<circle cx="102.5" cy="100.2" r="31.4" class="cutout"/>
<text x="102.5" y="60.9" class="label-sm">MID</text>
<rect x="60.2" y="132.6" width="84.7" height="50.0" rx="1.4" ry="1.4" class="cutout"/>
<text x="102.5" y="194.7" class="label-sm">WG</text>
<line x1="50.0" y1="478.0" x2="50.0" y2="463.0" class="dim-line"/>
<line x1="155.0" y1="478.0" x2="155.0" y2="463.0" class="dim-line"/>
<line x1="50.0" y1="463.0" x2="155.0" y2="463.0" class="dim-line"/>
<polygon points="50.0,463.0 54.0,461.0 54.0,465.0" class="arrow"/>
<polygon points="155.0,463.0 151.0,461.0 151.0,465.0" class="arrow"/>
<text x="102.5" y="459.0" class="dim-text">W=300</text>
<line x1="55.0" y1="60.0" x2="70.0" y2="60.0" class="dim-line"/>
<line x1="55.0" y1="473.0" x2="70.0" y2="473.0" class="dim-line"/>
<line x1="70.0" y1="60.0" x2="70.0" y2="473.0" class="dim-line"/>
<polygon points="70.0,60.0 68.0,64.0 72.0,64.0" class="arrow"/>
<polygon points="70.0,473.0 68.0,469.0 72.0,469.0" class="arrow"/>
<text x="84.0" y="266.5" class="dim-text-v" transform="rotate(-90 84.0 266.5)">H=1180</text>
<line x1="58.0" y1="473.0" x2="73.0" y2="473.0" class="dim-line"/>
<line x1="58.0" y1="100.2" x2="73.0" y2="100.2" class="dim-line"/>
<line x1="73.0" y1="473.0" x2="73.0" y2="100.2" class="dim-line"/>
<polygon points="73.0,473.0 71.0,477.0 75.0,477.0" class="arrow"/>
<polygon points="73.0,100.2 71.0,96.2 75.0,96.2" class="arrow"/>
<text x="87.0" y="286.6" class="dim-text-v" transform="rotate(-90 87.0 286.6)">1065</text>
<line x1="83.0" y1="473.0" x2="98.0" y2="473.0" class="dim-line"/>
<line x1="83.0" y1="157.7" x2="98.0" y2="157.7" class="dim-line"/>
<line x1="98.0" y1="473.0" x2="98.0" y2="157.7" class="dim-line"/>
<polygon points="98.0,473.0 96.0,477.0 100.0,477.0" class="arrow"/>
<polygon points="98.0,157.7 96.0,153.7 100.0,153.7" class="arrow"/>
<text x="112.0" y="315.3" class="dim-text-v" transform="rotate(-90 112.0 315.3)">901</text>
<line x1="156.8" y1="100.2" x2="171.8" y2="100.2" class="dim-line"/>
<line x1="156.8" y1="157.7" x2="171.8" y2="157.7" class="dim-line"/>
<line x1="171.8" y1="100.2" x2="171.8" y2="157.7" class="dim-line"/>
<polygon points="171.8,100.2 169.8,104.2 173.8,104.2" class="arrow"/>
<polygon points="171.8,157.7 169.8,153.7 173.8,153.7" class="arrow"/>
<text x="185.8" y="129.0" class="dim-text-v" transform="rotate(-90 185.8 129.0)">cc=164</text>
<rect x="287.0" y="60.0" width="147.0" height="413.0" class="panel"/>
<text x="360.5" y="52.0" class="label">SIDE</text>
<circle cx="360.5" cy="291.0" r="49.7" class="cutout"/>
<text x="360.5" y="233.3" class="label-sm">12SW</text>
<line x1="290.0" y1="128.2" x2="431.0" y2="82.9" class="center-line"/>
<text x="442.0" y="105.6" class="label-sm">divider 19°</text>
<line x1="292.0" y1="417.0" x2="429.0" y2="417.0" class="center-line"/>
<line x1="292.0" y1="357.5" x2="429.0" y2="357.5" class="center-line"/>
<line x1="292.0" y1="217.5" x2="429.0" y2="217.5" class="center-line"/>
<line x1="287.0" y1="478.0" x2="287.0" y2="463.0" class="dim-line"/>
<line x1="434.0" y1="478.0" x2="434.0" y2="463.0" class="dim-line"/>
<line x1="287.0" y1="463.0" x2="434.0" y2="463.0" class="dim-line"/>
<polygon points="287.0,463.0 291.0,461.0 291.0,465.0" class="arrow"/>
<polygon points="434.0,463.0 430.0,461.0 430.0,465.0" class="arrow"/>
<text x="360.5" y="459.0" class="dim-text">D=420</text>
<line x1="292.0" y1="60.0" x2="307.0" y2="60.0" class="dim-line"/>
<line x1="292.0" y1="473.0" x2="307.0" y2="473.0" class="dim-line"/>
<line x1="307.0" y1="60.0" x2="307.0" y2="473.0" class="dim-line"/>
<polygon points="307.0,60.0 305.0,64.0 309.0,64.0" class="arrow"/>
<polygon points="307.0,473.0 305.0,469.0 309.0,469.0" class="arrow"/>
<text x="321.0" y="266.5" class="dim-text-v" transform="rotate(-90 321.0 266.5)">H=1180</text>
<line x1="295.0" y1="473.0" x2="310.0" y2="473.0" class="dim-line"/>
<line x1="295.0" y1="291.0" x2="310.0" y2="291.0" class="dim-line"/>
<line x1="310.0" y1="473.0" x2="310.0" y2="291.0" class="dim-line"/>
<polygon points="310.0,473.0 308.0,477.0 312.0,477.0" class="arrow"/>
<polygon points="310.0,291.0 308.0,287.0 312.0,287.0" class="arrow"/>
<text x="324.0" y="382.0" class="dim-text-v" transform="rotate(-90 324.0 382.0)">520</text>
<text x="15.0" y="523.0" class="note">Internal: 256 × 376 × 1136 mm  |  Wall: 22 mm  |  Roundover: R19</text>
<text x="15.0" y="539.0" class="note">Driver heights: MID z=1065 WG/TW z=901 Woofer z=520 | C-C mid/tw:</text>
<text x="15.0" y="552.0" class="note">164 mm</text>
<text x="15.0" y="555.0" class="note">Shelf braces at z=[160, 330, 730]  |  Divider tilt: 19°</text>
</svg>
