<?xml version="1.0" encoding="UTF-8"?>
<svg xmlns="http://www.w3.org/2000/svg" width="780" height="460" viewBox="0 0 780 460">
<style>.panel { fill: #f5f0e0; stroke: #333; stroke-width: 1.5; }
.cutout { fill: none; stroke: #c0392b; stroke-width: 1.2; stroke-dasharray: 6,3; }
.rebate { fill: #faebe0; stroke: #e67e22; stroke-width: 1.0; stroke-dasharray: 4,2; }
.pilot { fill: #333; }
.dim-line { stroke: #2980b9; stroke-width: 0.8; fill: none; }
.dim-text { fill: #2980b9; font-family: sans-serif; font-size: 11px; text-anchor: middle; }
.dim-text-v { fill: #2980b9; font-family: sans-serif; font-size: 11px; text-anchor: middle; }
.label { fill: #333; font-family: sans-serif; font-size: 12px; text-anchor: middle; font-weight: bold; }
.label-sm { fill: #555; font-family: sans-serif; font-size: 10px; text-anchor: middle; }
.label-driver { fill: #c0392b; font-family: sans-serif; font-size: 11px; text-anchor: middle; font-weight: bold; }
.title-text { fill: #222; font-family: sans-serif; font-size: 16px; font-weight: bold; }
.subtitle { fill: #555; font-family: sans-serif; font-size: 10px; }
.note { fill: #555; font-family: sans-serif; font-size: 10px; }
.arrow { stroke: #2980b9; stroke-width: 0.8; fill: #2980b9; }
.center-line { stroke: #888; stroke-width: 0.5; stroke-dasharray: 8,3,2,3; }
</style>
<rect width="780" height="460" fill="white"/>
<text x="15.0" y="25.0" class="title-text">Mk3 Cabinet — Panel Cut List</text>
<text x="15.0" y="44.0" class="subtitle">Material: 22 mm birch plywood  |  External: 300 × 420 × 1180 mm</text>
<rect x="15.0" y="50.0" width="750.0" height="32.0" class="panel"/>
<text x="40.0" y="68.0" class="label-sm">Panel</text>
<text x="190.0" y="68.0" class="label-sm">Width (mm)</text>
<text x="280.0" y="68.0" class="label-sm">Height/Depth (mm)</text>
<text x="360.0" y="68.0" class="label-sm">Qty</text>
<text x="440.0" y="68.0" class="label-sm">Thickness</text>
<text x="620.0" y="68.0" class="label-sm">Notes</text>
<rect x="15.0" y="92.0" width="750.0" height="32.0" class=""/>
<rect x="15" y="92.0" width="750" height="32" fill="#f8f8f4"/>
<text x="20.0" y="112.0" class="label-sm">Front baffle</text>
<text x="190.0" y="112.0" class="label-sm">300</text>
<text x="280.0" y="112.0" class="label-sm">1180</text>
<text x="360.0" y="112.0" class="label-sm">1</text>
<text x="440.0" y="112.0" class="label-sm">22</text>
<text x="620.0" y="112.0" class="label-sm">R19 front vertical edges, mid + WG cutouts</text>
<text x="20.0" y="144.0" class="label-sm">Back panel</text>
<text x="190.0" y="144.0" class="label-sm">300</text>
<text x="280.0" y="144.0" class="label-sm">1180</text>
<text x="360.0" y="144.0" class="label-sm">1</text>
<text x="440.0" y="144.0" class="label-sm">22</text>
<text x="620.0" y="144.0" class="label-sm">Square edges</text>
<rect x="15.0" y="156.0" width="750.0" height="32.0" class=""/>
<rect x="15" y="156.0" width="750" height="32" fill="#f8f8f4"/>
<text x="20.0" y="176.0" class="label-sm">Side panel L</text>
<text x="190.0" y="176.0" class="label-sm">420</text>
<text x="280.0" y="176.0" class="label-sm">1180</text>
<text x="360.0" y="176.0" class="label-sm">1</text>
<text x="440.0" y="176.0" class="label-sm">22</text>
<text x="620.0" y="176.0" class="label-sm">Woofer cutout Ø284, 8×Ø5.5 on Ø319 BCD</text>
<text x="20.0" y="208.0" class="label-sm">Side panel R</text>
<text x="190.0" y="208.0" class="label-sm">420</text>
<text x="280.0" y="208.0" class="label-sm">1180</text>
<text x="360.0" y="208.0" class="label-sm">1</text>
<text x="440.0" y="208.0" class="label-sm">22</text>
<text x="620.0" y="208.0" class="label-sm">Woofer cutout Ø284, 8×Ø5.5 on Ø319 BCD (opposed)</text>
<rect x="15.0" y="220.0" width="750.0" height="32.0" class=""/>
<rect x="15" y="220.0" width="750" height="32" fill="#f8f8f4"/>
<text x="20.0" y="240.0" class="label-sm">Top panel</text>
<text x="190.0" y="240.0" class="label-sm">300</text>
<text x="280.0" y="240.0" class="label-sm">420</text>
<text x="360.0" y="240.0" class="label-sm">1</text>
<text x="440.0" y="240.0" class="label-sm">22</text>
<text x="620.0" y="240.0" class="label-sm">Square edges</text>
<text x="20.0" y="272.0" class="label-sm">Bottom panel</text>
<text x="190.0" y="272.0" class="label-sm">300</text>
<text x="280.0" y="272.0" class="label-sm">420</text>
<text x="360.0" y="272.0" class="label-sm">1</text>
<text x="440.0" y="272.0" class="label-sm">22</text>
<text x="620.0" y="272.0" class="label-sm">Square edges</text>
<rect x="15.0" y="284.0" width="750.0" height="32.0" class=""/>
<rect x="15" y="284.0" width="750" height="32" fill="#f8f8f4"/>
<text x="20.0" y="304.0" class="label-sm">Divider plate</text>
<text x="190.0" y="304.0" class="label-sm">300</text>
<text x="280.0" y="304.0" class="label-sm">420</text>
<text x="360.0" y="304.0" class="label-sm">1</text>
<text x="440.0" y="304.0" class="label-sm">22</text>
<text x="620.0" y="304.0" class="label-sm">Tilted 19°, cut to fit cavity</text>
<text x="20.0" y="336.0" class="label-sm">Shelf brace 1</text>
<text x="190.0" y="336.0" class="label-sm">256</text>
<text x="280.0" y="336.0" class="label-sm">376</text>
<text x="360.0" y="336.0" class="label-sm">1</text>
<text x="440.0" y="336.0" class="label-sm">22</text>
<text x="620.0" y="336.0" class="label-sm">Ring shelf, rim 45 mm, z=160</text>
<rect x="15.0" y="348.0" width="750.0" height="32.0" class=""/>
<rect x="15" y="348.0" width="750" height="32" fill="#f8f8f4"/>
<text x="20.0" y="368.0" class="label-sm">Shelf brace 2</text>
<text x="190.0" y="368.0" class="label-sm">256</text>
<text x="280.0" y="368.0" class="label-sm">376</text>
<text x="360.0" y="368.0" class="label-sm">1</text>
<text x="440.0" y="368.0" class="label-sm">22</text>
<text x="620.0" y="368.0" class="label-sm">Ring shelf, rim 45 mm, z=330</text>
<text x="20.0" y="400.0" class="label-sm">Shelf brace 3</text>
<text x="190.0" y="400.0" class="label-sm">256</text>
<text x="280.0" y="400.0" class="label-sm">376</text>
<text x="360.0" y="400.0" class="label-sm">1</text>
<text x="440.0" y="400.0" class="label-sm">22</text>
<text x="620.0" y="400.0" class="label-sm">Ring shelf, rim 45 mm, z=730</text>
<text x="20.0" y="432.0" class="note">Total panels: 10  |  Total panel area: 2.37 m²  |  Plywood volume: 0.05 L</text>
<text x="20.0" y="450.0" class="note">NOTE: Divider plate and shelf braces are cut to fit the internal cavity (256 × 376 mm). Measure</text>
<text x="20.0" y="463.0" class="note">actual internal dims before cutting.</text>
<text x="20.0" y="466.0" class="note">All dimensions from cabinet.scad (single source of truth). Verify driver cutouts against datasheet</text>
<text x="20.0" y="479.0" class="note">before cutting.</text>
</svg>
