<?xml version="1.0" encoding="UTF-8"?>
<svg xmlns="http://www.w3.org/2000/svg" width="320.0" height="750.0" viewBox="0 0 320.0 750.0">
<style>.panel { fill: #f5f0e0; stroke: #333; stroke-width: 1.5; }
.cutout { fill: none; stroke: #c0392b; stroke-width: 1.2; stroke-dasharray: 6,3; }
.rebate { fill: #faebe0; stroke: #e67e22; stroke-width: 1.0; stroke-dasharray: 4,2; }
.pilot { fill: #333; }
.dim-line { stroke: #2980b9; stroke-width: 0.8; fill: none; }
.dim-text { fill: #2980b9; font-family: sans-serif; font-size: 11px; text-anchor: middle; }
.dim-text-v { fill: #2980b9; font-family: sans-serif; font-size: 11px; text-anchor: middle; }
.label { fill: #333; font-family: sans-serif; font-size: 12px; text-anchor: middle; font-weight: bold; }
.label-sm { fill: #555; font-family: sans-serif; font-size: 10px; text-anchor: middle; }
.label-driver { fill: #c0392b; font-family: sans-serif; font-size: 11px; text-anchor: middle; font-weight: bold; }
.title-text { fill: #222; font-family: sans-serif; font-size: 16px; font-weight: bold; }
.subtitle { fill: #555; font-family: sans-serif; font-size: 10px; }
.note { fill: #555; font-family: sans-serif; font-size: 10px; }
.arrow { stroke: #2980b9; stroke-width: 0.8; fill: #2980b9; }
.center-line { stroke: #888; stroke-width: 0.5; stroke-dasharray: 8,3,2,3; }
</style>
<rect width="320.0" height="750.0" fill="white"/>
<rect x="80.0" y="80.0" width="160.0" height="590.0" rx="9.5" ry="9.5" class="panel"/>
<text x="15.0" y="25.0" class="title-text">Mk3 Front Baffle —</text>
<text x="15.0" y="43.0" class="title-text">Cutout &amp; Hole Layout</text>
<text x="15.0" y="44.0" class="subtitle">Panel: 320 × 1180 mm, 22 mm birch ply,</text>
<text x="15.0" y="57.0" class="subtitle">R19 front edges</text>
<circle cx="160.0" cy="137.5" r="44.8" class="rebate"/>
<circle cx="160.0" cy="137.5" r="36.3" class="cutout"/>
<line x1="152.0" y1="137.5" x2="168.0" y2="137.5" class="center-line"/>
<line x1="160.0" y1="129.5" x2="160.0" y2="145.5" class="center-line"/>
<circle cx="196.2" cy="158.4" r="1.5" class="pilot"/>
<circle cx="160.0" cy="179.2" r="1.5" class="pilot"/>
<circle cx="123.8" cy="158.4" r="1.5" class="pilot"/>
<circle cx="123.8" cy="116.6" r="1.5" class="pilot"/>
<circle cx="160.0" cy="95.8" r="1.5" class="pilot"/>
<circle cx="196.2" cy="116.6" r="1.5" class="pilot"/>
<text x="160.0" y="80.7" class="label-driver">18W/4424G00  Ø145 cut  Ø179 rebate  6×Ø5.3</text>
<rect x="99.2" y="183.5" width="121.5" height="72.0" rx="2.0" ry="2.0" class="rebate"/>
<circle cx="107.0" cy="187.5" r="1.5" class="pilot"/>
<circle cx="107.0" cy="251.5" r="1.5" class="pilot"/>
<circle cx="213.0" cy="187.5" r="1.5" class="pilot"/>
<circle cx="213.0" cy="251.5" r="1.5" class="pilot"/>
<line x1="152.0" y1="219.5" x2="168.0" y2="219.5" class="center-line"/>
<line x1="160.0" y1="211.5" x2="160.0" y2="227.5" class="center-line"/>
<text x="160.0" y="269.5" class="label-driver">SB26STAC  242×143 recess  4×Ø3 pilot</text>
<line x1="80.0" y1="670.0" x2="80.0" y2="655.0" class="dim-line"/>
<line x1="240.0" y1="670.0" x2="240.0" y2="655.0" class="dim-line"/>
<line x1="80.0" y1="655.0" x2="240.0" y2="655.0" class="dim-line"/>
<polygon points="80.0,655.0 84.0,653.0 84.0,657.0" class="arrow"/>
<polygon points="240.0,655.0 236.0,653.0 236.0,657.0" class="arrow"/>
<text x="160.0" y="651.0" class="dim-text">320</text>
<line x1="100.0" y1="80.0" x2="115.0" y2="80.0" class="dim-line"/>
<line x1="100.0" y1="670.0" x2="115.0" y2="670.0" class="dim-line"/>
<line x1="115.0" y1="80.0" x2="115.0" y2="670.0" class="dim-line"/>
<polygon points="115.0,80.0 113.0,84.0 117.0,84.0" class="arrow"/>
<polygon points="115.0,670.0 113.0,666.0 117.0,666.0" class="arrow"/>
<text x="129.0" y="375.0" class="dim-text-v" transform="rotate(-90 129.0 375.0)">1180</text>
<line x1="70.0" y1="670.0" x2="85.0" y2="670.0" class="dim-line"/>
<line x1="70.0" y1="137.5" x2="85.0" y2="137.5" class="dim-line"/>
<line x1="85.0" y1="670.0" x2="85.0" y2="137.5" class="dim-line"/>
<polygon points="85.0,670.0 83.0,674.0 87.0,674.0" class="arrow"/>
<polygon points="85.0,137.5 83.0,133.5 87.0,133.5" class="arrow"/>
<text x="99.0" y="403.8" class="dim-text-v" transform="rotate(-90 99.0 403.8)">z=1065</text>
<line x1="105.0" y1="670.0" x2="120.0" y2="670.0" class="dim-line"/>
<line x1="105.0" y1="219.5" x2="120.0" y2="219.5" class="dim-line"/>
<line x1="120.0" y1="670.0" x2="120.0" y2="219.5" class="dim-line"/>
<polygon points="120.0,670.0 118.0,674.0 122.0,674.0" class="arrow"/>
<polygon points="120.0,219.5 118.0,215.5 122.0,215.5" class="arrow"/>
<text x="134.0" y="444.8" class="dim-text-v" transform="rotate(-90 134.0 444.8)">z=901</text>
<line x1="240.8" y1="137.5" x2="255.8" y2="137.5" class="dim-line"/>
<line x1="240.8" y1="219.5" x2="255.8" y2="219.5" class="dim-line"/>
<line x1="255.8" y1="137.5" x2="255.8" y2="219.5" class="dim-line"/>
<polygon points="255.8,137.5 253.8,141.5 257.8,141.5" class="arrow"/>
<polygon points="255.8,219.5 253.8,215.5 257.8,215.5" class="arrow"/>
<text x="269.8" y="178.5" class="dim-text-v" transform="rotate(-90 269.8 178.5)">cc=164</text>
<line x1="160.0" y1="75.0" x2="160.0" y2="675.0" class="center-line"/>
<text x="80.0" y="720.0" class="note">Red dashed: cutout Orange:</text>
<text x="80.0" y="733.0" class="note">rebate Dots: pilot Ø3</text>
</svg>
