<?xml version="1.0" encoding="UTF-8"?>
<svg xmlns="http://www.w3.org/2000/svg" width="320" height="780" viewBox="0 0 320 780">
<style>.panel { fill: #f5f0e0; stroke: #333; stroke-width: 1.5; }
.cutout { fill: none; stroke: #c0392b; stroke-width: 1.2; stroke-dasharray: 6,3; }
.rebate { fill: #faebe0; stroke: #e67e22; stroke-width: 1.0; stroke-dasharray: 4,2; }
.pilot { fill: #333; }
.dim-line { stroke: #2980b9; stroke-width: 0.8; fill: none; }
.dim-text { fill: #2980b9; font-family: sans-serif; font-size: 11px; text-anchor: middle; }
.dim-text-v { fill: #2980b9; font-family: sans-serif; font-size: 11px; text-anchor: middle; }
.label { fill: #333; font-family: sans-serif; font-size: 12px; text-anchor: middle; font-weight: bold; }
.label-sm { fill: #555; font-family: sans-serif; font-size: 10px; text-anchor: middle; }
.label-driver { fill: #c0392b; font-family: sans-serif; font-size: 11px; text-anchor: middle; font-weight: bold; }
.title-text { fill: #222; font-family: sans-serif; font-size: 16px; font-weight: bold; }
.subtitle { fill: #555; font-family: sans-serif; font-size: 10px; }
.note { fill: #555; font-family: sans-serif; font-size: 10px; }
.arrow { stroke: #2980b9; stroke-width: 0.8; fill: #2980b9; }
.center-line { stroke: #888; stroke-width: 0.5; stroke-dasharray: 8,3,2,3; }
</style>
<rect width="320" height="780" fill="white"/>
<text x="15.0" y="20.0" class="title-text">Front Baffle — Cut</text>
<text x="15.0" y="38.0" class="title-text">Drawing</text>
<text x="15.0" y="38.0" class="subtitle">320 × 1180 mm, 22 mm ply, R19 front</text>
<text x="15.0" y="51.0" class="subtitle">edges</text>
<rect x="80.0" y="110.0" width="160.0" height="590.0" rx="9.5" ry="9.5" class="panel"/>
<circle cx="160.0" cy="167.5" r="44.8" class="rebate"/>
<circle cx="160.0" cy="167.5" r="36.3" class="cutout"/>
<line x1="152.0" y1="167.5" x2="168.0" y2="167.5" class="center-line"/>
<line x1="160.0" y1="159.5" x2="160.0" y2="175.5" class="center-line"/>
<circle cx="196.2" cy="188.4" r="1.5" class="pilot"/>
<circle cx="160.0" cy="209.2" r="1.5" class="pilot"/>
<circle cx="123.8" cy="188.4" r="1.5" class="pilot"/>
<circle cx="123.8" cy="146.6" r="1.5" class="pilot"/>
<circle cx="160.0" cy="125.8" r="1.5" class="pilot"/>
<circle cx="196.2" cy="146.6" r="1.5" class="pilot"/>
<text x="160.0" y="112.7" class="label-sm">Ø145.3 cut  Ø179.2 rebate  6×Ø5.3</text>
<rect x="99.2" y="213.5" width="121.5" height="72.0" rx="2.0" ry="2.0" class="rebate"/>
<circle cx="107.0" cy="217.5" r="1.5" class="pilot"/>
<circle cx="107.0" cy="281.5" r="1.5" class="pilot"/>
<circle cx="213.0" cy="217.5" r="1.5" class="pilot"/>
<circle cx="213.0" cy="281.5" r="1.5" class="pilot"/>
<line x1="152.0" y1="249.5" x2="168.0" y2="249.5" class="center-line"/>
<line x1="160.0" y1="241.5" x2="160.0" y2="257.5" class="center-line"/>
<text x="160.0" y="297.5" class="label-sm">242×143 recess  4×Ø3 pilot</text>
<line x1="80.0" y1="700.0" x2="80.0" y2="685.0" class="dim-line"/>
<line x1="240.0" y1="700.0" x2="240.0" y2="685.0" class="dim-line"/>
<line x1="80.0" y1="685.0" x2="240.0" y2="685.0" class="dim-line"/>
<polygon points="80.0,685.0 84.0,683.0 84.0,687.0" class="arrow"/>
<polygon points="240.0,685.0 236.0,683.0 236.0,687.0" class="arrow"/>
<text x="160.0" y="681.0" class="dim-text">W=320</text>
<line x1="90.0" y1="110.0" x2="105.0" y2="110.0" class="dim-line"/>
<line x1="90.0" y1="700.0" x2="105.0" y2="700.0" class="dim-line"/>
<line x1="105.0" y1="110.0" x2="105.0" y2="700.0" class="dim-line"/>
<polygon points="105.0,110.0 103.0,114.0 107.0,114.0" class="arrow"/>
<polygon points="105.0,700.0 103.0,696.0 107.0,696.0" class="arrow"/>
<text x="119.0" y="405.0" class="dim-text-v" transform="rotate(-90 119.0 405.0)">H=1180</text>
<line x1="71.0" y1="700.0" x2="86.0" y2="700.0" class="dim-line"/>
<line x1="71.0" y1="167.5" x2="86.0" y2="167.5" class="dim-line"/>
<line x1="86.0" y1="700.0" x2="86.0" y2="167.5" class="dim-line"/>
<polygon points="86.0,700.0 84.0,704.0 88.0,704.0" class="arrow"/>
<polygon points="86.0,167.5 84.0,163.5 88.0,163.5" class="arrow"/>
<text x="100.0" y="433.8" class="dim-text-v" transform="rotate(-90 100.0 433.8)">z=1065</text>
<line x1="95.0" y1="700.0" x2="110.0" y2="700.0" class="dim-line"/>
<line x1="95.0" y1="249.5" x2="110.0" y2="249.5" class="dim-line"/>
<line x1="110.0" y1="700.0" x2="110.0" y2="249.5" class="dim-line"/>
<polygon points="110.0,700.0 108.0,704.0 112.0,704.0" class="arrow"/>
<polygon points="110.0,249.5 108.0,245.5 112.0,245.5" class="arrow"/>
<text x="124.0" y="474.8" class="dim-text-v" transform="rotate(-90 124.0 474.8)">z=901</text>
<line x1="160.0" y1="105.0" x2="160.0" y2="705.0" class="center-line"/>
</svg>
