<?xml version="1.0" encoding="UTF-8"?>
<svg xmlns="http://www.w3.org/2000/svg" width="508" height="780" viewBox="0 0 508 780">
<style>.panel { fill: #f5f0e0; stroke: #333; stroke-width: 1.5; }
.cutout { fill: none; stroke: #c0392b; stroke-width: 1.2; stroke-dasharray: 6,3; }
.rebate { fill: #faebe0; stroke: #e67e22; stroke-width: 1.0; stroke-dasharray: 4,2; }
.pilot { fill: #333; }
.dim-line { stroke: #2980b9; stroke-width: 0.8; fill: none; }
.dim-text { fill: #2980b9; font-family: sans-serif; font-size: 11px; text-anchor: middle; }
.dim-text-v { fill: #2980b9; font-family: sans-serif; font-size: 11px; text-anchor: middle; }
.label { fill: #333; font-family: sans-serif; font-size: 12px; text-anchor: middle; font-weight: bold; }
.label-sm { fill: #555; font-family: sans-serif; font-size: 10px; text-anchor: middle; }
.label-driver { fill: #c0392b; font-family: sans-serif; font-size: 11px; text-anchor: middle; font-weight: bold; }
.title-text { fill: #222; font-family: sans-serif; font-size: 16px; font-weight: bold; text-anchor: middle; }
.subtitle { fill: #555; font-family: sans-serif; font-size: 10px; text-anchor: middle; }
.note { fill: #555; font-family: sans-serif; font-size: 10px; }
.arrow { stroke: #2980b9; stroke-width: 0.8; fill: #2980b9; }
.center-line { stroke: #888; stroke-width: 0.5; stroke-dasharray: 8,3,2,3; }
</style>
<rect width="508" height="780" fill="white"/>
<text x="254.0" y="20.0" class="title-text">Side Panel RIGHT — Cut Drawing</text>
<text x="254.0" y="38.0" class="subtitle">380 × 1180 mm, 22 mm ply, woofer on right (opposed) face</text>
<rect x="80.0" y="110.0" width="190.0" height="590.0" class="panel"/>
<circle cx="175.0" cy="440.0" r="83.0" class="rebate"/>
<circle cx="175.0" cy="440.0" r="71.0" class="cutout"/>
<line x1="165.0" y1="440.0" x2="185.0" y2="440.0" class="center-line"/>
<line x1="175.0" y1="430.0" x2="175.0" y2="450.0" class="center-line"/>
<circle cx="254.8" cy="440.0" r="1.5" class="pilot"/>
<circle cx="231.4" cy="496.4" r="1.5" class="pilot"/>
<circle cx="175.0" cy="519.8" r="1.5" class="pilot"/>
<circle cx="118.6" cy="496.4" r="1.5" class="pilot"/>
<circle cx="95.2" cy="440.0" r="1.5" class="pilot"/>
<circle cx="118.6" cy="383.6" r="1.5" class="pilot"/>
<circle cx="175.0" cy="360.2" r="1.5" class="pilot"/>
<circle cx="231.4" cy="383.6" r="1.5" class="pilot"/>
<text x="175.0" y="347.0" class="label-sm">Ø284 cut  Ø332 frame  8×Ø5.5 on Ø319 BCD</text>
<line x1="85.0" y1="620.0" x2="265.0" y2="620.0" class="center-line"/>
<text x="278.0" y="623.0" class="label-sm">shelf z=160</text>
<line x1="85.0" y1="535.0" x2="265.0" y2="535.0" class="center-line"/>
<text x="278.0" y="538.0" class="label-sm">shelf z=330</text>
<line x1="85.0" y1="335.0" x2="265.0" y2="335.0" class="center-line"/>
<text x="278.0" y="338.0" class="label-sm">shelf z=730</text>
<line x1="80.0" y1="700.0" x2="80.0" y2="685.0" class="dim-line"/>
<line x1="270.0" y1="700.0" x2="270.0" y2="685.0" class="dim-line"/>
<line x1="80.0" y1="685.0" x2="270.0" y2="685.0" class="dim-line"/>
<polygon points="80.0,685.0 84.0,683.0 84.0,687.0" class="arrow"/>
<polygon points="270.0,685.0 266.0,683.0 266.0,687.0" class="arrow"/>
<text x="175.0" y="681.0" class="dim-text">D=380</text>
<line x1="90.0" y1="110.0" x2="105.0" y2="110.0" class="dim-line"/>
<line x1="90.0" y1="700.0" x2="105.0" y2="700.0" class="dim-line"/>
<line x1="105.0" y1="110.0" x2="105.0" y2="700.0" class="dim-line"/>
<polygon points="105.0,110.0 103.0,114.0 107.0,114.0" class="arrow"/>
<polygon points="105.0,700.0 103.0,696.0 107.0,696.0" class="arrow"/>
<text x="119.0" y="405.0" class="dim-text-v" transform="rotate(-90 119.0 405.0)">H=1180</text>
<line x1="71.0" y1="700.0" x2="86.0" y2="700.0" class="dim-line"/>
<line x1="71.0" y1="440.0" x2="86.0" y2="440.0" class="dim-line"/>
<line x1="86.0" y1="700.0" x2="86.0" y2="440.0" class="dim-line"/>
<polygon points="86.0,700.0 84.0,704.0 88.0,704.0" class="arrow"/>
<polygon points="86.0,440.0 84.0,436.0 88.0,436.0" class="arrow"/>
<text x="100.0" y="570.0" class="dim-text-v" transform="rotate(-90 100.0 570.0)">z=520</text>
<line x1="175.0" y1="105.0" x2="175.0" y2="705.0" class="center-line"/>
</svg>
