<?xml version="1.0" encoding="UTF-8"?>
<svg xmlns="http://www.w3.org/2000/svg" width="310" height="400" viewBox="0 0 310 400">
<style>.panel { fill: #f5f0e0; stroke: #333; stroke-width: 1.5; }
.cutout { fill: none; stroke: #c0392b; stroke-width: 1.2; stroke-dasharray: 6,3; }
.rebate { fill: #faebe0; stroke: #e67e22; stroke-width: 1.0; stroke-dasharray: 4,2; }
.pilot { fill: #333; }
.dim-line { stroke: #2980b9; stroke-width: 0.8; fill: none; }
.dim-text { fill: #2980b9; font-family: sans-serif; font-size: 11px; text-anchor: middle; }
.dim-text-v { fill: #2980b9; font-family: sans-serif; font-size: 11px; text-anchor: middle; }
.label { fill: #333; font-family: sans-serif; font-size: 12px; text-anchor: middle; font-weight: bold; }
.label-sm { fill: #555; font-family: sans-serif; font-size: 10px; text-anchor: middle; }
.label-driver { fill: #c0392b; font-family: sans-serif; font-size: 11px; text-anchor: middle; font-weight: bold; }
.title-text { fill: #222; font-family: sans-serif; font-size: 16px; font-weight: bold; }
.subtitle { fill: #555; font-family: sans-serif; font-size: 10px; }
.note { fill: #555; font-family: sans-serif; font-size: 10px; }
.arrow { stroke: #2980b9; stroke-width: 0.8; fill: #2980b9; }
.center-line { stroke: #888; stroke-width: 0.5; stroke-dasharray: 8,3,2,3; }
</style>
<rect width="310" height="400" fill="white"/>
<text x="15.0" y="20.0" class="title-text">Bottom Panel — Cut</text>
<text x="15.0" y="38.0" class="title-text">Drawing</text>
<text x="15.0" y="38.0" class="subtitle">300 × 420 mm, 22 mm ply, R19 front</text>
<text x="15.0" y="51.0" class="subtitle">edge</text>
<rect x="80.0" y="110.0" width="150.0" height="210.0" rx="9.5" ry="9.5" class="panel"/>
<line x1="80.0" y1="320.0" x2="80.0" y2="305.0" class="dim-line"/>
<line x1="230.0" y1="320.0" x2="230.0" y2="305.0" class="dim-line"/>
<line x1="80.0" y1="305.0" x2="230.0" y2="305.0" class="dim-line"/>
<polygon points="80.0,305.0 84.0,303.0 84.0,307.0" class="arrow"/>
<polygon points="230.0,305.0 226.0,303.0 226.0,307.0" class="arrow"/>
<text x="155.0" y="301.0" class="dim-text">W=300</text>
<line x1="90.0" y1="110.0" x2="105.0" y2="110.0" class="dim-line"/>
<line x1="90.0" y1="320.0" x2="105.0" y2="320.0" class="dim-line"/>
<line x1="105.0" y1="110.0" x2="105.0" y2="320.0" class="dim-line"/>
<polygon points="105.0,110.0 103.0,114.0 107.0,114.0" class="arrow"/>
<polygon points="105.0,320.0 103.0,316.0 107.0,316.0" class="arrow"/>
<text x="119.0" y="215.0" class="dim-text-v" transform="rotate(-90 119.0 215.0)">D=420</text>
<text x="155.0" y="215.0" class="label-sm">No cutouts</text>
</svg>
